<?xml version="1.0" encoding="utf-8"?>
<!-- Generator: Adobe Illustrator 25.4.0, SVG Export Plug-In . SVG Version: 6.00 Build 0)  -->
<svg version="1.1" id="Layer_2" xmlns="http://www.w3.org/2000/svg" xmlns:xlink="http://www.w3.org/1999/xlink" x="0px" y="0px"
	 viewBox="0 0 125 40" style="enable-background:new 0 0 125 40;" xml:space="preserve">
<style type="text/css">
	.st0{fill:none;}
	.st1{fill:url(#SVGID_1_);}
	.st2{fill:#FFFFFF;}
	.st3{fill:#54D6FF;}
	.st4{fill:#3C92FF;}
</style>
<rect class="st0" width="125" height="40"/>
<g>
	<linearGradient id="SVGID_1_" gradientUnits="userSpaceOnUse" x1="2.15709" y1="37.62857" x2="37.46756" y2="2.74226">
		<stop  offset="0" style="stop-color:#642FF9"/>
		<stop  offset="0.17146" style="stop-color:#603FFA"/>
		<stop  offset="0.50887" style="stop-color:#566AFC"/>
		<stop  offset="0.97611" style="stop-color:#47AFFF"/>
		<stop  offset="1" style="stop-color:#46B3FF"/>
	</linearGradient>
	<path class="st1" d="M31.29229,0H8.7077C3.89857,0,0,3.89858,0,8.70771V31.2923C0,36.10143,3.89857,40,8.7077,40h22.58459
		c4.80914,0,8.7077-3.89857,8.7077-8.7077V8.70771C39.99998,3.89858,36.10142,0,31.29229,0z"/>
	<path class="st2" d="M34.80425,18.74538C34.13552,9.17205,27.19335,5.34698,20,5.31473V5.31397
		c-0.01531,0-0.03059,0.00034-0.04589,0.00038c-0.0153-0.00004-0.03059-0.00038-0.04589-0.00038v0.00076
		C12.71485,5.34698,5.77268,9.17205,5.10396,18.74538c-0.14139,1.16641-0.21208,2.99261-0.21208,4.78347
		c0,3.41676,1.72017,5.18405,3.06331,6.03235c0.37702,0.58909,0.87186,1.88511,1.97937,1.88511
		c0.87186,0,1.53165-0.56554,1.53165-1.74373s0-9.42555,0-10.58018s-0.8483-1.55522-1.27245-1.55522
		c-0.73047,0-1.39027,0.58909-1.62591,1.90867l-1.43739,1.13107c0,0,0.30633-1.55522,0.37702-2.07363
		C7.86039,14.90996,9.75993,7.49304,19.9541,7.47059c10.19416,0.02244,12.09371,7.43937,12.44663,11.06271
		c0.07069,0.51841,0.37702,2.07363,0.37702,2.07363l-1.4374-1.13107c-0.23564-1.31958-0.89543-1.90867-1.62591-1.90867
		c-0.42415,0-1.27245,0.40059-1.27245,1.55522s0,9.40198,0,10.58018s0.65979,1.74373,1.53165,1.74373
		c1.1075,0,1.60234-1.29602,1.97936-1.88511c1.34314-0.8483,3.0633-2.61559,3.0633-6.03235
		C35.01632,21.73799,34.94563,19.91179,34.80425,18.74538z"/>
	<path class="st2" d="M23.95505,31.79977L23.95505,31.79977c-0.7418,0-1.34314-0.60134-1.34314-1.34314v-14.6803
		c0-0.7418,0.60134-1.34314,1.34314-1.34314h0c0.74179,0,1.34314,0.60134,1.34314,1.34314v14.6803
		C25.29819,31.19843,24.69685,31.79977,23.95505,31.79977z"/>
	<path class="st3" d="M24.70566,31.57046L24.70566,31.57046c-0.61515,0.41455-1.44989,0.25193-1.86444-0.36322l-8.01158-11.87606
		c-0.41455-0.61515-0.25193-1.44989,0.36322-1.86444l0,0c0.61515-0.41455,1.44989-0.25193,1.86444,0.36323l8.01158,11.87606
		C25.48343,30.32117,25.32081,31.15591,24.70566,31.57046z"/>
	<path class="st2" d="M15.94334,34.60387L15.94334,34.60387c-0.7418,0-1.34314-0.60135-1.34314-1.34314v-14.6803
		c0-0.74179,0.60134-1.34314,1.34314-1.34314h0c0.7418,0,1.34314,0.60135,1.34314,1.34314v14.6803
		C17.28648,34.00253,16.68513,34.60387,15.94334,34.60387z"/>
	<path class="st4" d="M47.59405,10.22474v20.9844h4.92042c0,0,0-5.81301,0-7.98089s-0.42415-5.65533-0.42415-5.65533
		s9.96752,11.68768,10.62731,12.46529c0.65979,0.77761,1.34314,1.17093,2.33282,1.17093c0.98969,0,3.44033,0,3.44033,0v-20.9844
		h-4.90129c0,0,0,5.43951,0,8.19648s0.44771,5.63177,0.44771,5.63177s-9.77901-11.56986-10.76869-12.6538
		c-0.98969-1.08394-1.72017-1.17444-2.87479-1.17444S47.59405,10.22474,47.59405,10.22474z"/>
	<path class="st4" d="M91.56187,24.51443c-1.4187,1.51055-3.80633,2.36622-6.15224,2.36622
		c-3.66994,0-6.64502-2.77463-6.64502-6.1973c0-3.42267,2.97508-6.1973,6.64502-6.1973c2.06894,0,4.17143,0.86147,5.6123,2.36018
		l3.04648-3.81611c-2.18463-2.00985-5.22507-3.25684-8.5881-3.25684c-6.65013,0-12.04114,4.87406-12.04114,10.88651
		S78.83019,31.5463,85.48032,31.5463c3.29865,0,6.28703-1.19965,8.46181-3.14219L91.56187,24.51443z"/>
	<polygon class="st4" points="117.7864,10.22474 98.32264,10.22474 98.32264,14.62744 105.43893,14.62744 105.43893,31.20914 
		110.52872,31.20914 110.52872,14.62744 117.7864,14.62744 	"/>
</g>
</svg>
